<svg width="18" height="18" viewBox="0 0 18 18" fill="none" xmlns="http://www.w3.org/2000/svg">
<path d="M12.5953 10.2C12.7387 9.81623 12.8115 9.40969 12.8103 9.00001C12.8103 8.09031 12.4489 7.21788 11.8057 6.57463C11.1624 5.93138 10.29 5.57001 9.38031 5.57001C8.97567 5.57059 8.57437 5.6434 8.19531 5.78501L9.00031 6.61501C9.12273 6.59585 9.24641 6.58582 9.37031 6.58501C10.0135 6.58366 10.6312 6.83688 11.0883 7.28935C11.5455 7.74183 11.805 8.35681 11.8103 9.00001C11.8095 9.12391 11.7995 9.24759 11.7803 9.37001L12.5953 10.2Z" fill="black"/>
<path d="M17.1452 8.76501C15.4602 5.65001 12.5052 3.76501 9.23523 3.76501C8.3449 3.76694 7.46053 3.91039 6.61523 4.19001L7.42023 5.00001C8.01318 4.84688 8.62284 4.76794 9.23523 4.76501C12.0502 4.76501 14.6102 6.33501 16.1352 8.98001C15.5753 9.96096 14.8338 10.8264 13.9502 11.53L14.6602 12.24C15.6836 11.415 16.5332 10.3953 17.1602 9.24001L17.2902 9.00001L17.1452 8.76501Z" fill="black"/>
<path d="M2.43445 2.89002L4.66445 5.12002C3.25462 6.02723 2.10253 7.28264 1.31945 8.76502L1.18945 9.00002L1.31945 9.24002C3.00445 12.355 5.95945 14.24 9.22945 14.24C10.5058 14.2403 11.7657 13.9514 12.9145 13.395L15.4145 15.895L16.2895 15.145L3.28945 2.14502L2.43445 2.89002ZM7.30945 7.76502L10.6345 11.09C10.2589 11.3228 9.82632 11.4474 9.38445 11.45C9.06342 11.45 8.74555 11.3865 8.44914 11.2632C8.15273 11.1399 7.88363 10.9592 7.65732 10.7315C7.43102 10.5038 7.25197 10.2336 7.13048 9.93646C7.009 9.6393 6.94748 9.32105 6.94945 9.00002C6.95483 8.56326 7.07931 8.13626 7.30945 7.76502ZM6.58445 7.04002C6.11667 7.69972 5.89742 8.50367 5.96551 9.30951C6.03361 10.1154 6.38466 10.8711 6.95651 11.443C7.52836 12.0148 8.28411 12.3659 9.08996 12.434C9.8958 12.5021 10.6998 12.2828 11.3595 11.815L12.1595 12.615C11.2334 13.011 10.2366 13.2151 9.22945 13.215C6.41445 13.215 3.85445 11.645 2.32945 9.00002C3.06149 7.70427 4.11546 6.6193 5.38945 5.85002L6.58445 7.04002Z" fill="black"/>
</svg>
